{"glyphs":{":":{"x_min":0,"x_max":303,"ha":303,"o":"m 99 130 l 230 130 l 204 0 l 72 0 z m 164 439 l 295 439 l 268 309 l 136 309 z"},"$":{"x_min":0,"x_max":518,"ha":518,"o":"m 177 15 q 131 18 94 27 q 58 37 35 48 l 55 145 q 90 128 126 120 q 162 111 196 110 l 219 220 q 194 225 169 233 q 144 242 124 256 q 104 271 93 293 q 81 315 81 349 q 81 421 132 461 q 184 501 278 503 l 288 551 l 364 551 l 353 499 q 385 495 415 488 q 445 481 472 472 l 452 375 q 393 397 333 404 l 312 299 q 338 293 363 285 q 388 276 408 262 q 428 249 440 227 q 453 206 453 175 q 453 140 438 112 q 424 84 398 64 q 372 44 335 31 q 298 19 252 15 l 242 -34 l 167 -34 z m 188 356 q 188 337 202 328 q 217 318 239 313 l 258 406 q 227 403 207 392 q 188 380 188 356 z m 345 169 q 345 185 330 193 q 314 201 292 206 l 273 114 q 289 116 302 121 q 315 125 325 132 q 334 139 340 148 q 345 157 345 169 z"},"?":{"x_min":0,"x_max":449,"ha":449,"o":"m 474 525 q 474 493 464 469 q 454 444 438 425 q 422 405 402 390 q 382 374 360 360 q 341 347 322 335 q 302 322 286 309 q 270 295 259 279 q 247 263 243 243 l 241 234 l 133 234 q 135 268 147 293 q 159 319 177 340 q 196 361 218 377 q 241 394 263 409 q 281 421 298 433 q 315 445 328 458 q 341 470 349 484 q 357 499 357 515 q 357 530 351 540 q 345 551 334 557 q 323 564 308 567 q 293 570 275 570 q 237 570 194 559 q 151 548 111 530 l 131 628 q 165 646 207 656 q 250 666 297 666 q 336 666 369 656 q 401 647 425 629 q 448 611 461 585 q 474 559 474 525 z m 104 130 l 235 130 l 208 0 l 77 0 z"},"<":{"x_min":0,"x_max":527,"ha":527,"o":"m 56 312 l 472 500 l 472 394 l 165 263 l 165 261 l 472 131 l 472 25 l 56 212 z"},"'":{"x_min":0,"x_max":210,"ha":210,"o":"m 188 384 l 85 384 l 142 653 l 245 653 z"},"=":{"x_min":0,"x_max":527,"ha":527,"o":"m 472 302 l 56 302 l 56 396 l 472 396 z m 472 114 l 56 114 l 56 208 l 472 208 z"},"a":{"x_min":0,"x_max":538,"ha":538,"o":"m 432 114 q 432 101 439 95 q 446 89 458 89 q 473 89 493 92 l 473 0 q 443 -7 415 -7 q 375 -7 354 12 q 333 31 328 65 l 326 65 q 292 24 254 6 q 215 -12 178 -12 q 146 -12 121 0 q 95 11 78 33 q 60 54 51 84 q 42 115 42 152 q 42 191 48 231 q 55 271 68 308 q 81 345 100 377 q 120 410 145 434 q 170 458 202 471 q 233 485 270 485 q 303 485 333 471 q 364 457 386 426 l 388 426 l 405 473 l 504 473 l 436 144 q 434 134 433 126 q 432 118 432 114 z m 364 354 q 360 360 353 366 q 346 373 336 378 q 327 383 315 387 q 304 390 291 390 q 268 390 249 379 q 230 368 215 350 q 200 332 189 308 q 179 284 172 259 q 165 233 161 209 q 158 184 158 163 q 158 122 171 102 q 184 83 208 83 q 233 83 258 99 q 283 116 303 146 q 316 165 325 190 q 335 215 342 247 z"},"L":{"x_min":0,"x_max":538,"ha":538,"o":"m 169 100 l 477 100 l 457 0 l 29 0 l 165 653 l 284 653 z"},"3":{"x_min":0,"x_max":459,"ha":459,"o":"m 305 317 q 305 349 284 367 q 264 386 216 386 q 184 386 147 378 q 110 371 63 355 l 83 454 q 114 467 153 476 q 192 485 238 485 q 285 485 319 473 q 354 461 376 441 q 399 420 410 393 q 421 365 421 332 q 421 270 391 223 q 361 175 302 151 l 302 149 q 340 137 361 108 q 381 79 381 37 q 381 -18 360 -62 q 339 -105 302 -137 q 266 -168 216 -185 q 167 -202 109 -202 q 60 -202 18 -191 q -24 -180 -49 -164 l -29 -69 q 0 -85 34 -94 q 68 -103 103 -103 q 143 -103 173 -92 q 203 -81 224 -63 q 244 -45 254 -21 q 265 2 265 28 q 265 62 242 82 q 220 102 174 102 l 81 102 l 101 200 l 160 200 q 201 200 228 210 q 256 220 273 237 q 290 254 297 275 q 305 296 305 317 z"},";":{"x_min":0,"x_max":314,"ha":314,"o":"m 175 439 l 306 439 l 279 309 l 147 309 z m 125 130 l 261 130 l 123 -201 l 2 -201 z"},"J":{"x_min":0,"x_max":390,"ha":390,"o":"m 286 653 l 405 653 l 298 141 q 292 110 283 89 q 273 67 260 51 q 234 20 193 4 q 151 -12 95 -12 q 63 -12 38 -7 q 12 -2 -10 6 l 11 105 q 29 98 48 93 q 66 89 89 89 q 106 89 121 93 q 137 97 149 106 q 162 116 171 131 q 181 146 185 167 z"},"V":{"x_min":0,"x_max":622,"ha":622,"o":"m 559 653 l 690 653 l 330 0 l 229 0 l 105 653 l 223 653 l 272 375 q 294 250 305 175 l 308 175 q 348 253 412 375 z"},"\"":{"x_min":0,"x_max":395,"ha":395,"o":"m 188 384 l 85 384 l 142 653 l 245 653 z m 373 384 l 270 384 l 326 653 l 429 653 z"},"7":{"x_min":0,"x_max":453,"ha":453,"o":"m 48 368 l 70 473 l 472 473 l 456 394 l 97 -189 l -27 -189 l 315 368 z"},"S":{"x_min":0,"x_max":563,"ha":563,"o":"m 381 204 q 381 227 369 241 q 357 255 338 264 q 319 273 294 281 q 269 288 242 295 q 211 305 185 318 q 158 332 139 351 q 119 370 108 397 q 97 425 97 461 q 97 507 114 545 q 130 583 161 609 q 192 636 236 651 q 280 666 334 666 q 392 666 449 653 q 505 641 548 622 l 527 523 q 472 545 429 555 q 386 564 342 564 q 284 564 251 540 q 219 516 219 475 q 219 453 228 437 q 236 422 251 411 q 266 401 285 393 q 305 386 327 379 q 359 369 391 358 q 422 347 448 329 q 473 311 489 283 q 504 255 504 214 q 504 161 484 119 q 464 77 427 48 q 389 19 336 3 q 283 -12 217 -12 q 183 -12 152 -8 q 120 -3 94 3 q 68 10 48 18 q 28 26 16 33 l 37 132 q 74 114 120 101 q 167 89 218 89 q 255 89 285 97 q 315 104 337 119 q 358 133 370 155 q 381 177 381 204 z"},"}":{"x_min":0,"x_max":305,"ha":305,"o":"m 166 255 q 160 256 151 262 q 142 267 133 277 q 125 287 118 301 q 112 314 112 333 q 112 352 117 368 q 122 385 129 400 q 136 415 145 429 q 154 443 163 456 q 178 478 189 497 q 200 516 200 535 q 200 561 177 571 q 155 581 112 581 l 99 581 l 116 666 l 145 666 q 224 666 265 637 q 305 608 305 556 q 305 538 300 521 q 295 504 288 489 q 280 473 270 458 q 260 443 250 429 q 234 405 221 382 q 208 358 208 333 q 208 311 225 302 q 243 293 282 293 l 266 214 q 213 216 190 196 q 167 176 167 133 q 167 118 170 104 q 174 90 178 76 q 184 59 188 41 q 193 23 193 1 q 193 -35 178 -65 q 163 -94 134 -115 q 106 -136 67 -147 q 27 -159 -20 -159 l -50 -159 l -32 -74 l -19 -74 q 33 -74 61 -56 q 88 -37 88 5 q 88 18 85 30 q 83 42 79 55 q 75 69 72 84 q 69 99 69 117 q 69 142 76 163 q 83 185 96 203 q 108 221 126 233 q 144 246 165 253 z"},"Z":{"x_min":0,"x_max":600,"ha":600,"o":"m 15 66 l 442 553 l 117 553 l 138 653 l 624 653 l 610 587 l 184 100 l 524 100 l 503 0 l 0 0 z"},"x":{"x_min":0,"x_max":501,"ha":501,"o":"m 339 0 l 250 160 l 108 0 l -29 0 l 195 247 l 62 473 l 186 473 l 272 321 l 410 473 l 550 473 l 328 234 l 464 0 z"},")":{"x_min":0,"x_max":306,"ha":306,"o":"m 157 671 q 175 655 195 627 q 215 600 232 562 q 249 525 259 477 q 270 428 270 370 q 270 281 249 201 q 228 122 192 54 q 156 -14 109 -69 q 62 -125 11 -164 l -43 -104 q 4 -62 43 -10 q 82 42 110 103 q 138 164 153 234 q 168 304 168 382 q 168 455 151 512 q 133 569 99 610 z"},"&":{"x_min":0,"x_max":713,"ha":713,"o":"m 532 528 q 532 490 519 461 q 505 431 482 408 q 460 385 431 367 q 401 349 370 333 q 392 307 420 274 q 448 242 479 206 q 503 237 521 273 q 539 309 548 349 l 660 349 q 650 289 621 232 q 592 175 546 126 q 564 105 581 86 q 598 67 613 50 q 627 34 639 21 q 650 8 658 0 l 512 0 q 505 8 492 23 q 479 37 463 56 q 416 24 361 6 q 306 -12 247 -12 q 197 -12 161 2 q 125 16 101 38 q 78 61 66 91 q 55 120 55 151 q 55 191 67 223 q 79 254 99 278 q 119 303 145 322 q 172 341 201 356 q 177 386 161 419 q 146 451 146 487 q 146 529 162 562 q 178 595 206 618 q 234 641 273 653 q 312 666 357 666 q 396 666 429 656 q 461 647 484 629 q 507 612 520 586 q 532 561 532 528 z m 173 158 q 173 120 196 101 q 219 83 258 83 q 294 83 330 95 q 365 107 398 130 q 382 150 365 170 q 347 189 330 209 q 313 229 298 247 q 282 265 268 280 q 248 269 230 256 q 213 244 200 229 q 188 214 180 197 q 173 179 173 158 z m 264 490 q 264 464 276 444 q 287 424 304 405 q 327 417 347 428 q 368 439 383 453 q 397 466 406 481 q 415 497 415 517 q 415 545 396 558 q 378 571 350 571 q 309 571 286 550 q 264 528 264 490 z"},"_":{"x_min":0,"x_max":488,"ha":488,"o":"m 0 -69 l 488 -69 l 488 -134 l 0 -134 z"},"v":{"x_min":0,"x_max":494,"ha":494,"o":"m 165 473 l 203 293 q 221 208 231 139 l 234 139 q 269 216 312 290 l 415 473 l 545 473 l 264 0 l 158 0 l 49 473 z"},"O":{"x_min":0,"x_max":705,"ha":705,"o":"m 424 564 q 385 564 352 551 q 318 537 291 513 q 264 490 243 458 q 223 426 209 390 q 195 354 188 315 q 181 276 181 239 q 181 202 190 174 q 200 146 219 127 q 237 108 263 98 q 290 89 322 89 q 362 89 395 103 q 428 116 455 140 q 482 164 503 195 q 524 227 538 263 q 552 299 559 338 q 566 377 566 414 q 566 488 528 526 q 490 564 424 564 z m 433 666 q 490 666 536 650 q 583 634 616 602 q 649 571 667 524 q 686 478 686 417 q 686 378 677 332 q 669 286 651 238 q 633 190 604 145 q 576 100 534 65 q 493 30 438 9 q 384 -12 314 -12 q 257 -12 210 4 q 164 20 130 51 q 97 83 79 129 q 61 176 61 237 q 61 275 69 321 q 77 368 95 415 q 113 463 142 508 q 171 553 212 588 q 253 623 308 644 q 363 666 433 666 z"},"(":{"x_min":0,"x_max":306,"ha":306,"o":"m 169 -164 q 150 -148 130 -121 q 110 -93 94 -56 q 78 -18 67 30 q 56 79 56 137 q 56 226 77 306 q 98 385 134 453 q 169 521 216 576 q 263 631 315 671 l 369 610 q 322 568 283 517 q 244 465 216 404 q 188 343 173 273 q 157 203 157 125 q 157 52 175 -5 q 193 -62 227 -104 z"},"C":{"x_min":0,"x_max":579,"ha":579,"o":"m 441 564 q 399 564 363 552 q 326 540 297 519 q 268 497 246 468 q 225 438 210 404 q 195 370 188 332 q 181 294 181 255 q 181 206 194 174 q 208 142 231 123 q 254 104 286 96 q 317 89 353 89 q 392 88 433 96 q 475 104 516 118 l 495 12 q 455 -1 410 -7 q 364 -12 328 -12 q 269 -12 219 3 q 170 18 135 49 q 100 80 81 129 q 61 178 61 245 q 61 293 71 343 q 80 393 100 439 q 120 486 150 527 q 180 568 221 599 q 263 630 317 648 q 372 666 436 666 q 470 666 515 659 q 560 653 598 640 l 578 542 q 542 553 509 559 q 477 564 441 564 z"},"W":{"x_min":0,"x_max":905,"ha":905,"o":"m 467 653 l 595 653 l 604 391 q 607 259 606 170 l 610 170 q 661 294 723 418 l 842 653 l 974 653 l 634 0 l 510 0 l 504 231 q 501 350 501 475 l 499 475 q 467 375 411 234 l 316 0 l 195 0 l 105 653 l 227 653 l 255 417 q 273 264 279 170 l 282 170 q 309 262 365 402 z"},"A":{"x_min":0,"x_max":647,"ha":647,"o":"m 426 167 l 194 167 l 104 0 l -29 0 l 335 653 l 446 653 l 579 0 l 457 0 z m 249 267 l 407 267 l 394 337 q 378 421 368 494 l 365 494 q 331 417 290 343 z"},"f":{"x_min":0,"x_max":360,"ha":360,"o":"m 270 473 l 397 473 l 377 378 l 250 378 l 161 -53 q 154 -89 144 -115 q 134 -141 121 -160 q 90 -204 43 -221 q -3 -239 -59 -239 q -85 -239 -110 -235 q -134 -230 -149 -225 l -129 -132 q -113 -139 -96 -142 q -79 -145 -64 -145 q -37 -145 -18 -137 q 1 -130 14 -115 q 28 -100 37 -77 q 45 -54 52 -22 l 135 378 l 50 378 l 70 473 l 155 473 l 167 532 q 174 566 183 591 q 193 616 206 635 q 221 657 240 673 q 258 688 280 699 q 301 709 324 714 q 348 719 372 719 q 401 719 427 714 q 454 709 472 703 l 454 613 q 431 619 413 622 q 395 625 381 625 q 356 625 337 616 q 319 607 306 588 q 298 577 292 562 q 286 547 282 528 z"},"Q":{"x_min":0,"x_max":710,"ha":710,"o":"m 525 81 q 625 99 670 99 l 649 -6 q 572 0 508 0 q 482 0 454 -2 q 426 -3 405 -5 q 383 -7 357 -9 q 331 -10 313 -10 q 257 -10 211 5 q 164 21 131 52 q 98 83 79 129 q 61 176 61 237 q 61 284 71 334 q 81 385 101 433 q 122 480 152 523 q 183 565 224 597 q 265 628 317 647 q 370 666 433 666 q 490 666 537 650 q 584 634 617 602 q 650 571 668 524 q 686 478 686 417 q 686 366 674 317 q 663 268 642 224 q 621 181 591 145 q 562 108 525 83 z m 420 564 q 382 564 349 551 q 316 537 290 513 q 263 490 243 458 q 223 426 209 390 q 195 354 188 315 q 181 277 181 239 q 181 165 219 127 q 257 89 327 89 q 365 89 398 103 q 430 116 457 140 q 483 164 504 195 q 524 227 538 263 q 552 299 559 338 q 566 377 566 414 q 566 488 528 526 q 490 564 420 564 z"},"w":{"x_min":0,"x_max":731,"ha":731,"o":"m 404 0 l 390 193 q 386 264 383 333 l 380 333 q 364 280 331 196 l 253 0 l 140 0 l 49 473 l 165 473 l 197 284 q 208 213 215 145 l 218 145 q 239 211 266 279 l 346 473 l 461 473 l 476 296 q 481 229 485 144 l 488 144 q 526 235 560 299 l 652 473 l 782 473 l 514 0 z"},"-":{"x_min":0,"x_max":333,"ha":333,"o":"m 71 297 l 286 297 l 264 192 l 49 192 z"},"E":{"x_min":0,"x_max":545,"ha":545,"o":"m 169 100 l 477 100 l 457 0 l 29 0 l 165 653 l 574 653 l 553 553 l 263 553 l 228 384 l 477 384 l 457 284 l 208 284 z"},"s":{"x_min":0,"x_max":418,"ha":418,"o":"m 265 144 q 265 158 256 167 q 247 177 232 184 q 217 191 198 197 q 180 203 161 210 q 143 217 127 226 q 110 235 97 249 q 84 263 77 282 q 69 301 69 328 q 69 368 84 398 q 100 427 125 447 q 150 466 184 475 q 218 485 255 485 q 276 485 297 482 q 318 479 339 475 q 359 470 377 464 q 396 458 411 451 l 393 360 q 356 375 321 383 q 285 391 254 391 q 220 391 202 377 q 184 364 184 342 q 184 329 190 320 q 197 311 208 304 q 219 297 233 292 q 248 286 263 280 q 283 273 304 264 q 324 255 341 241 q 357 227 368 206 q 378 185 378 153 q 378 112 363 82 q 348 51 319 30 q 291 9 252 -2 q 213 -12 165 -12 q 138 -12 114 -9 q 90 -6 71 -2 q 52 2 37 7 q 23 12 15 16 l 34 108 q 66 96 99 89 q 132 82 166 82 q 214 82 240 98 q 265 114 265 144 z"},">":{"x_min":0,"x_max":527,"ha":527,"o":"m 472 212 l 56 25 l 56 131 l 362 261 l 362 263 l 56 394 l 56 500 l 472 312 z"},"l":{"x_min":0,"x_max":272,"ha":272,"o":"m 164 707 l 279 707 l 163 146 q 159 126 159 118 q 159 104 167 98 q 175 92 192 92 q 208 92 227 96 l 206 -1 q 194 -3 177 -5 q 159 -7 143 -7 q 91 -7 65 16 q 39 39 39 84 q 39 107 45 137 z"},"8":{"x_min":0,"x_max":546,"ha":546,"o":"m 425 500 q 425 519 419 532 q 413 545 402 554 q 391 562 376 567 q 361 571 343 571 q 323 571 304 564 q 286 558 271 544 q 257 531 248 511 q 240 492 240 465 q 240 431 258 411 q 276 391 310 381 q 335 386 356 397 q 377 408 393 423 q 408 438 416 458 q 425 478 425 500 z m 375 204 q 375 242 352 263 q 330 284 293 290 q 265 287 241 276 q 217 266 199 248 q 182 231 172 208 q 162 186 162 160 q 162 125 183 104 q 204 83 249 83 q 274 83 297 90 q 320 98 337 114 q 354 129 365 152 q 375 174 375 204 z m 124 468 q 124 513 142 550 q 159 586 190 612 q 220 638 261 652 q 302 666 348 666 q 395 666 430 655 q 466 644 490 623 q 515 603 527 575 q 540 547 540 513 q 540 481 531 454 q 521 427 504 404 q 486 381 462 363 q 438 345 409 332 l 409 331 q 445 314 467 283 q 490 252 490 206 q 490 155 470 114 q 451 74 417 46 q 382 18 336 3 q 290 -12 237 -12 q 188 -12 152 0 q 116 12 92 34 q 69 55 58 85 q 46 114 46 149 q 46 184 57 214 q 68 244 87 269 q 107 294 134 313 q 162 332 195 342 l 195 344 q 162 364 143 395 q 124 425 124 468 z"},"\\":{"x_min":0,"x_max":294,"ha":294,"o":"m 159 -122 l 42 653 l 139 653 l 257 -122 z"},"e":{"x_min":0,"x_max":484,"ha":484,"o":"m 355 355 q 355 372 343 383 q 330 395 304 395 q 285 395 264 387 q 244 379 226 364 q 208 349 194 326 q 180 304 172 275 q 224 275 259 282 q 294 289 315 300 q 337 312 346 326 q 355 340 355 355 z m 472 355 q 472 316 452 284 q 433 253 396 231 q 358 208 303 197 q 248 185 176 185 q 167 185 155 186 l 155 183 q 155 157 162 137 q 170 118 184 106 q 199 94 219 88 q 240 83 265 83 q 303 83 345 92 q 387 101 418 117 l 397 15 q 367 3 328 -5 q 290 -12 246 -12 q 193 -12 155 2 q 116 16 91 42 q 66 67 54 103 q 42 138 42 180 q 42 218 49 255 q 57 292 72 326 q 87 360 110 389 q 132 418 162 439 q 191 460 228 473 q 265 485 308 485 q 345 485 375 476 q 406 466 427 449 q 448 433 460 409 q 472 385 472 355 z"},"b":{"x_min":0,"x_max":505,"ha":505,"o":"m 169 185 q 166 170 165 162 q 165 154 165 148 q 165 118 179 100 q 193 83 222 83 q 246 83 266 93 q 286 103 302 120 q 318 138 331 160 q 344 183 352 208 q 361 233 365 259 q 370 285 370 308 q 370 324 366 339 q 362 354 355 365 q 347 377 335 384 q 322 390 305 390 q 289 390 270 383 q 252 376 236 361 q 219 346 206 323 q 192 300 186 267 z m 234 502 q 225 464 216 431 l 218 431 q 227 441 239 450 q 251 460 266 468 q 281 476 299 480 q 317 485 338 485 q 368 485 395 474 q 422 463 442 442 q 462 421 474 389 q 486 357 486 315 q 486 279 479 241 q 472 203 457 166 q 443 129 420 97 q 398 65 367 41 q 337 16 298 2 q 258 -12 210 -12 q 172 -12 142 0 q 112 11 92 31 q 71 51 60 79 q 49 106 49 138 q 49 150 50 164 q 52 177 56 199 l 162 707 l 277 707 z"},"%":{"x_min":0,"x_max":864,"ha":864,"o":"m 710 416 q 771 416 807 377 q 842 338 842 261 q 842 231 837 199 q 833 167 823 138 q 813 108 798 81 q 783 55 762 35 q 742 15 715 3 q 689 -8 656 -8 q 595 -8 560 30 q 525 69 525 146 q 525 176 530 208 q 534 240 544 270 q 554 299 569 326 q 584 353 604 373 q 625 393 652 404 q 678 416 710 416 z m 660 78 q 679 78 694 97 q 709 117 719 146 q 729 175 734 209 q 739 244 739 273 q 739 305 731 317 q 722 329 707 329 q 688 329 673 310 q 658 291 648 261 q 638 232 633 198 q 627 164 627 134 q 627 103 636 90 q 645 78 660 78 z m 131 36 l 723 672 l 779 618 l 187 -19 z m 250 666 q 312 666 347 627 q 382 588 382 511 q 382 481 377 449 q 373 417 363 388 q 353 358 338 331 q 323 305 302 285 q 282 265 255 253 q 229 242 196 242 q 135 242 100 280 q 65 319 65 396 q 65 426 70 458 q 74 490 84 520 q 94 549 109 576 q 124 603 145 623 q 165 643 192 654 q 218 666 250 666 z m 200 328 q 219 328 234 347 q 249 367 259 396 q 269 425 274 459 q 279 494 279 523 q 279 555 271 567 q 262 579 247 579 q 228 579 213 560 q 198 541 188 511 q 178 482 173 448 q 167 414 167 384 q 167 353 176 340 q 185 328 200 328 z"},"m":{"x_min":0,"x_max":800,"ha":800,"o":"m 484 402 q 514 442 555 464 q 596 485 642 485 q 671 485 694 477 q 718 469 735 453 q 752 438 761 415 q 771 393 771 363 q 771 345 767 323 q 764 301 759 279 l 701 0 l 586 0 l 644 277 q 648 301 650 315 q 652 329 652 339 q 652 349 649 358 q 646 367 641 373 q 635 380 625 384 q 615 388 601 388 q 572 388 546 371 q 520 354 501 326 q 492 311 484 292 q 477 274 472 248 l 420 0 l 305 0 l 363 277 q 368 301 369 315 q 371 329 371 339 q 371 349 368 358 q 366 367 360 373 q 354 380 344 384 q 334 388 320 388 q 293 388 269 374 q 245 359 227 334 q 215 318 206 298 q 197 277 191 249 l 140 0 l 24 0 l 123 473 l 221 473 l 221 414 l 223 414 q 234 428 250 441 q 266 454 284 463 q 302 473 323 479 q 344 485 367 485 q 410 485 440 464 q 471 442 482 402 z"},"#":{"x_min":0,"x_max":646,"ha":646,"o":"m 236 479 l 291 653 l 383 653 l 329 479 l 446 479 l 500 653 l 593 653 l 539 479 l 635 479 l 625 390 l 511 390 l 472 263 l 572 263 l 563 174 l 444 174 l 390 0 l 297 0 l 352 174 l 234 174 l 180 0 l 87 0 l 142 174 l 46 174 l 55 263 l 169 263 l 208 390 l 108 390 l 118 479 z m 262 263 l 379 263 l 418 390 l 301 390 z"},",":{"x_min":0,"x_max":321,"ha":321,"o":"m 125 130 l 261 130 l 123 -201 l 2 -201 z"},"n":{"x_min":0,"x_max":539,"ha":539,"o":"m 140 0 l 24 0 l 123 473 l 221 473 l 221 414 l 223 414 q 234 428 250 441 q 266 454 285 463 q 304 473 326 479 q 349 485 373 485 q 401 485 426 477 q 450 469 469 453 q 488 438 499 415 q 509 393 509 363 q 509 345 506 323 q 502 301 498 279 l 440 0 l 325 0 l 384 288 q 387 303 389 315 q 391 327 391 335 q 391 360 377 374 q 363 388 334 388 q 298 388 268 368 q 237 349 216 315 q 212 309 209 302 q 205 294 202 285 q 198 276 195 264 q 192 252 188 236 z"},"h":{"x_min":0,"x_max":543,"ha":543,"o":"m 389 288 q 392 303 394 315 q 396 327 396 335 q 396 360 382 374 q 368 388 339 388 q 303 388 272 368 q 242 349 221 315 q 217 309 214 302 q 210 294 207 285 q 203 276 200 264 q 197 252 193 236 l 145 0 l 29 0 l 176 707 l 291 707 l 245 486 q 240 458 226 414 l 228 414 q 239 428 255 441 q 271 454 290 463 q 309 473 331 479 q 354 485 378 485 q 406 485 430 477 q 455 469 474 453 q 493 438 503 415 q 514 393 514 363 q 514 345 511 323 q 507 301 503 279 l 445 0 l 330 0 z"},"z":{"x_min":0,"x_max":456,"ha":456,"o":"m 288 378 l 76 378 l 96 473 l 458 473 l 443 401 l 172 95 l 403 95 l 384 0 l -2 0 l 11 65 z"},"B":{"x_min":0,"x_max":608,"ha":608,"o":"m 314 384 q 344 384 363 387 q 383 390 397 396 q 427 408 443 431 q 459 454 459 486 q 459 504 450 520 q 440 536 417 544 q 405 549 387 551 q 370 554 346 554 l 263 554 l 228 384 z m 208 284 l 169 100 l 231 100 q 313 100 356 117 q 398 133 417 160 q 435 188 435 219 q 435 240 424 255 q 414 270 389 277 q 378 281 363 283 q 347 284 324 284 z m 579 495 q 579 437 549 398 q 519 359 463 336 l 463 334 q 485 328 502 317 q 520 305 531 290 q 543 274 549 255 q 555 236 555 216 q 555 150 515 100 q 475 49 396 23 q 361 12 316 6 q 271 0 215 0 l 29 0 l 165 653 l 347 653 q 386 653 416 649 q 447 645 471 636 q 523 618 551 581 q 579 543 579 495 z"},"K":{"x_min":0,"x_max":585,"ha":585,"o":"m 29 0 l 165 653 l 284 653 l 224 363 l 226 363 l 496 653 l 644 653 l 332 325 l 539 0 l 402 0 l 213 302 l 211 302 l 148 0 z"},"R":{"x_min":0,"x_max":597,"ha":597,"o":"m 148 0 l 29 0 l 165 653 l 341 653 q 384 653 414 650 q 445 647 468 641 q 532 622 562 582 q 592 542 592 488 q 592 448 581 414 q 570 379 547 351 q 523 323 486 303 q 449 282 397 271 l 397 269 l 542 0 l 411 0 l 280 253 l 201 253 z m 222 353 l 268 353 q 300 353 326 355 q 352 357 373 363 q 419 376 446 405 q 473 433 473 479 q 473 502 462 520 q 451 537 427 545 q 415 549 396 551 q 378 553 350 553 l 263 553 z"},"T":{"x_min":0,"x_max":567,"ha":567,"o":"m 295 0 l 176 0 l 291 553 l 85 553 l 105 653 l 635 653 l 615 553 l 410 553 z"},"P":{"x_min":0,"x_max":586,"ha":586,"o":"m 148 0 l 29 0 l 165 653 l 328 653 q 420 653 470 637 q 529 617 555 578 q 582 538 582 485 q 582 434 561 391 q 541 349 502 318 q 463 287 406 270 q 349 253 275 253 q 237 253 202 258 z m 223 357 q 248 353 280 353 q 326 353 360 362 q 395 372 417 388 q 439 405 451 428 q 462 452 462 480 q 462 503 450 519 q 438 535 417 543 q 404 548 385 551 q 365 553 336 553 l 263 553 z"},"|":{"x_min":0,"x_max":237,"ha":237,"o":"m 168 -227 l 68 -227 l 68 707 l 168 707 z"},"t":{"x_min":0,"x_max":374,"ha":374,"o":"m 373 378 l 250 378 l 203 150 q 201 139 199 131 q 198 123 198 117 q 198 99 208 92 q 218 85 242 85 q 259 85 285 89 q 311 92 331 97 l 312 1 q 289 -5 261 -9 q 233 -12 209 -12 q 175 -12 151 -5 q 126 2 111 15 q 95 28 87 47 q 80 66 80 90 q 80 99 81 110 q 82 122 85 138 l 135 378 l 46 378 l 66 473 l 154 473 l 182 605 l 297 605 l 270 473 l 393 473 z"},"M":{"x_min":0,"x_max":797,"ha":797,"o":"m 388 176 q 423 251 538 455 l 650 653 l 812 653 l 677 0 l 558 0 l 627 312 q 645 390 672 497 l 668 497 q 620 394 480 148 l 395 0 l 315 0 l 263 353 q 252 424 244 497 l 240 497 q 233 425 214 326 l 148 0 l 29 0 l 165 653 l 318 653 l 348 471 q 366 356 385 176 z"},"g":{"x_min":0,"x_max":516,"ha":516,"o":"m 306 52 q 281 20 249 4 q 217 -12 180 -12 q 148 -12 123 0 q 97 11 80 33 q 62 54 53 84 q 43 115 43 152 q 43 191 50 231 q 57 271 70 308 q 83 345 102 377 q 121 410 146 434 q 172 458 203 471 q 234 485 271 485 q 305 485 335 471 q 366 457 388 426 l 390 426 l 407 473 l 506 473 l 407 -5 q 395 -64 372 -109 q 349 -153 315 -182 q 281 -211 235 -225 q 188 -239 127 -239 q 86 -239 44 -233 q 2 -226 -34 -212 l -14 -117 q 16 -129 50 -137 q 83 -145 118 -145 q 160 -145 190 -135 q 220 -125 240 -104 q 261 -84 275 -54 q 288 -24 297 15 q 302 39 308 52 z m 366 354 q 362 360 355 366 q 348 373 338 378 q 329 383 317 387 q 306 390 292 390 q 269 390 250 379 q 231 368 217 350 q 202 332 191 308 q 180 284 173 259 q 167 233 163 209 q 160 184 160 163 q 160 122 173 102 q 186 83 210 83 q 234 83 258 97 q 281 112 300 139 q 329 178 344 248 z"},"j":{"x_min":0,"x_max":258,"ha":258,"o":"m 136 473 l 251 473 l 138 -72 q 130 -110 120 -136 q 109 -163 94 -182 q 70 -210 34 -225 q -1 -239 -54 -239 q -78 -239 -104 -235 q -129 -230 -146 -224 l -127 -131 q -87 -145 -57 -145 q -38 -145 -24 -138 q -10 -132 0 -120 q 10 -107 16 -88 q 23 -69 28 -43 z m 156 582 l 181 707 l 302 707 l 277 582 z"},"i":{"x_min":0,"x_max":245,"ha":245,"o":"m 143 582 l 168 707 l 289 707 l 264 582 z m 24 0 l 123 473 l 238 473 l 140 0 z"},"y":{"x_min":0,"x_max":491,"ha":491,"o":"m 47 473 l 165 473 l 208 266 q 223 197 232 140 l 235 140 q 262 197 295 259 l 412 473 l 542 473 l 265 -16 q 237 -65 209 -106 q 181 -147 147 -177 q 114 -206 74 -223 q 34 -239 -17 -239 q -54 -239 -78 -233 l -59 -141 q -40 -145 -21 -145 q 7 -145 30 -135 q 52 -125 73 -106 q 93 -87 112 -59 q 131 -30 152 8 z"},"@":{"x_min":0,"x_max":998,"ha":998,"o":"m 668 138 q 667 130 666 122 q 665 113 665 108 q 665 103 666 97 q 667 91 670 87 q 673 83 678 80 q 684 77 691 77 q 716 77 742 95 q 767 112 787 145 q 808 177 821 223 q 833 269 833 324 q 833 383 812 432 q 792 480 754 515 q 716 549 664 568 q 611 587 549 587 q 485 587 432 570 q 379 553 338 524 q 296 494 265 454 q 234 415 214 369 q 194 324 184 276 q 174 227 174 180 q 174 106 194 50 q 214 -7 254 -46 q 294 -85 354 -105 q 413 -125 492 -125 q 562 -125 630 -112 q 698 -99 756 -78 l 742 -162 q 716 -170 686 -177 q 656 -185 624 -190 q 591 -195 557 -198 q 522 -202 488 -202 q 399 -202 326 -178 q 252 -154 200 -107 q 147 -60 118 10 q 88 79 88 171 q 88 235 102 297 q 116 359 142 414 q 168 469 208 515 q 247 562 298 595 q 349 628 411 647 q 473 666 546 666 q 628 666 697 640 q 766 615 815 570 q 865 525 892 462 q 920 398 920 322 q 920 248 900 188 q 880 129 846 87 q 812 45 768 22 q 723 0 674 0 q 629 0 604 23 q 579 47 575 84 l 573 84 q 558 62 540 47 q 522 31 503 21 q 484 10 464 5 q 443 0 424 0 q 394 0 368 10 q 343 20 326 40 q 308 60 299 91 q 289 123 289 166 q 289 200 295 236 q 302 272 314 307 q 327 341 346 371 q 366 401 392 424 q 417 447 450 460 q 482 473 521 473 q 555 473 579 462 q 603 451 623 431 l 625 431 l 638 461 l 737 461 z m 597 345 q 592 352 585 359 q 578 366 570 371 q 561 376 550 380 q 540 383 526 383 q 503 383 485 373 q 467 362 453 344 q 439 326 429 303 q 419 280 413 256 q 406 231 404 207 q 401 182 401 162 q 401 125 413 106 q 425 86 449 86 q 467 86 486 96 q 505 105 521 123 q 538 141 550 165 q 563 190 569 220 z"},".":{"x_min":0,"x_max":300,"ha":300,"o":"m 99 130 l 230 130 l 204 0 l 72 0 z"},"p":{"x_min":0,"x_max":512,"ha":512,"o":"m 161 110 q 174 98 192 90 q 210 83 232 83 q 254 83 274 92 q 293 102 309 119 q 325 136 338 159 q 350 182 359 207 q 368 233 372 260 q 376 287 376 313 q 376 348 363 369 q 350 390 322 390 q 298 390 271 373 q 245 356 223 324 q 210 305 201 280 q 191 255 184 223 z m 354 485 q 385 485 411 472 q 436 460 454 438 q 473 416 483 384 q 493 353 493 313 q 493 276 485 237 q 478 198 464 162 q 449 126 428 94 q 407 62 380 39 q 352 15 318 1 q 283 -12 244 -12 q 213 -12 188 -3 q 162 6 145 21 l 143 21 l 91 -227 l -24 -227 l 121 473 l 220 473 l 220 414 l 222 414 q 232 427 245 440 q 259 453 275 463 q 292 473 312 479 q 331 485 354 485 z"},"X":{"x_min":0,"x_max":634,"ha":634,"o":"m 360 422 l 362 422 l 566 653 l 712 653 l 416 322 l 569 0 l 441 0 l 330 242 l 328 242 l 116 0 l -29 0 l 274 342 l 126 653 l 253 653 z"},"*":{"x_min":0,"x_max":528,"ha":528,"o":"m 340 465 l 424 500 l 511 514 l 524 422 l 438 409 l 346 418 l 345 416 l 404 346 l 445 261 l 362 220 l 321 306 l 303 396 l 300 396 l 252 318 l 184 251 l 120 318 l 188 384 l 268 430 l 268 432 l 178 454 l 101 497 l 145 578 l 222 535 l 289 474 l 292 476 l 285 567 l 301 658 l 392 642 l 375 551 l 338 467 z"},"Y":{"x_min":0,"x_max":567,"ha":567,"o":"m 197 0 l 251 264 l 95 653 l 218 653 l 325 379 l 510 653 l 646 653 l 370 262 l 316 0 z"},"c":{"x_min":0,"x_max":435,"ha":435,"o":"m 427 368 q 400 379 374 385 q 348 390 327 390 q 295 390 270 380 q 245 369 226 352 q 207 334 194 312 q 181 290 173 267 q 165 243 161 220 q 158 198 158 179 q 158 151 165 133 q 171 114 184 103 q 196 92 213 87 q 229 83 249 83 q 282 83 317 92 q 353 101 389 117 l 368 15 q 343 5 306 -4 q 270 -12 228 -12 q 192 -12 158 -2 q 125 8 99 31 q 73 53 57 88 q 42 123 42 173 q 42 206 48 242 q 55 278 69 312 q 83 347 105 378 q 127 410 158 433 q 189 457 230 471 q 271 485 320 485 q 348 485 384 478 q 420 471 446 459 z"},"!":{"x_min":0,"x_max":292,"ha":292,"o":"m 300 653 l 201 234 l 95 234 l 171 653 z m 61 130 l 192 130 l 166 0 l 34 0 z"},"/":{"x_min":0,"x_max":294,"ha":294,"o":"m -56 -122 l 291 653 l 397 653 l 50 -122 z"},"[":{"x_min":0,"x_max":315,"ha":315,"o":"m 152 653 l 367 653 l 349 569 l 234 569 l 103 -62 l 217 -62 l 199 -146 l -15 -146 z"},"6":{"x_min":0,"x_max":542,"ha":542,"o":"m 298 309 q 271 309 248 299 q 225 290 208 272 q 191 254 182 230 q 173 206 173 175 q 173 153 179 135 q 186 118 197 106 q 208 95 223 89 q 238 83 256 83 q 288 83 311 95 q 334 108 349 129 q 364 149 372 174 q 379 200 379 225 q 379 247 373 262 q 367 278 356 289 q 345 299 330 304 q 315 309 298 309 z m 495 237 q 495 208 488 179 q 481 149 468 122 q 455 94 435 70 q 415 45 388 27 q 361 9 327 -1 q 293 -12 253 -12 q 211 -12 175 1 q 140 15 114 41 q 87 68 73 108 q 59 148 59 203 q 59 258 69 314 q 79 370 99 421 q 119 473 147 517 q 176 562 213 595 q 250 628 295 647 q 340 666 393 666 q 441 666 478 655 q 515 645 537 634 l 517 543 q 489 555 462 563 q 435 571 401 571 q 363 571 329 554 q 295 537 268 507 q 241 477 220 437 q 200 397 187 352 l 188 351 q 215 375 250 390 q 285 405 327 405 q 357 405 387 396 q 417 386 441 366 q 465 345 480 313 q 495 282 495 237 z"},"r":{"x_min":0,"x_max":358,"ha":358,"o":"m 380 374 q 359 379 339 379 q 322 379 304 375 q 286 371 269 362 q 251 354 236 339 q 221 325 210 303 q 205 293 199 278 q 194 264 189 238 l 140 0 l 24 0 l 123 473 l 221 473 l 221 414 l 223 414 q 250 447 285 466 q 319 485 365 485 q 383 485 402 482 z"},"2":{"x_min":0,"x_max":499,"ha":499,"o":"m 445 356 q 445 317 430 282 q 414 248 386 217 q 357 186 318 156 q 278 127 230 98 l 230 96 q 240 97 259 97 q 277 98 298 98 l 438 98 l 418 0 l 15 0 l 29 71 q 92 111 147 147 q 202 184 243 217 q 283 250 306 280 q 330 310 330 337 q 330 359 314 372 q 298 385 262 385 q 226 385 184 375 q 142 366 88 344 l 108 444 q 146 462 190 473 q 233 485 283 485 q 321 485 351 475 q 381 466 402 449 q 423 432 434 408 q 445 385 445 356 z"},"{":{"x_min":0,"x_max":305,"ha":305,"o":"m 155 252 q 161 250 170 245 q 179 240 187 230 q 196 220 202 206 q 208 192 208 173 q 208 155 203 139 q 199 122 191 107 q 184 92 175 78 q 166 64 157 51 q 143 29 132 10 q 121 -9 121 -28 q 121 -54 143 -64 q 166 -74 208 -74 l 222 -74 l 204 -159 l 176 -159 q 96 -159 56 -130 q 15 -101 15 -49 q 15 -31 20 -14 q 25 2 33 18 q 41 34 50 49 q 60 63 70 78 q 86 102 99 125 q 112 148 112 174 q 112 196 95 205 q 78 214 38 214 l 54 293 q 107 291 130 311 q 153 331 153 374 q 153 389 150 403 q 146 417 142 431 q 137 448 132 466 q 127 484 127 506 q 127 542 142 572 q 158 601 186 622 q 214 643 254 654 q 293 666 340 666 l 370 666 l 353 581 l 339 581 q 287 581 260 562 q 232 544 232 501 q 232 489 235 477 q 238 465 242 452 q 246 438 249 423 q 251 408 251 390 q 251 365 244 344 q 237 322 225 304 q 212 286 194 273 q 177 261 155 254 z"},"9":{"x_min":0,"x_max":547,"ha":547,"o":"m 255 164 q 285 164 309 174 q 332 185 348 203 q 365 221 373 246 q 382 271 382 299 q 382 340 360 365 q 338 390 298 390 q 271 390 249 378 q 227 365 211 345 q 195 324 187 298 q 178 272 178 245 q 178 164 255 164 z m 496 270 q 496 208 485 150 q 474 91 452 38 q 430 -14 399 -58 q 368 -102 329 -134 q 289 -166 242 -184 q 195 -202 141 -202 q 97 -202 61 -192 q 25 -183 3 -170 l 25 -78 q 37 -84 49 -89 q 62 -94 75 -98 q 88 -102 103 -104 q 118 -107 134 -107 q 176 -107 213 -90 q 250 -73 280 -44 q 311 -14 333 27 q 355 67 367 115 l 366 116 q 338 93 302 80 q 267 67 225 67 q 194 67 165 77 q 136 86 113 107 q 89 127 75 159 q 62 191 62 235 q 62 285 79 330 q 96 375 127 410 q 158 444 201 465 q 244 485 296 485 q 336 485 372 473 q 408 462 436 436 q 463 411 480 370 q 496 329 496 270 z"}," ":{"x_min":0,"x_max":206,"ha":206,"o":""},"I":{"x_min":0,"x_max":269,"ha":269,"o":"m 29 0 l 165 653 l 284 653 l 148 0 z"},"H":{"x_min":0,"x_max":665,"ha":665,"o":"m 228 384 l 507 384 l 562 653 l 682 653 l 546 0 l 427 0 l 486 284 l 208 284 l 148 0 l 29 0 l 165 653 l 284 653 z"},"4":{"x_min":0,"x_max":517,"ha":517,"o":"m 264 0 l 15 0 l 32 83 l 272 473 l 394 473 l 164 96 l 164 95 q 169 96 177 96 q 186 97 195 97 q 204 98 213 98 q 222 98 229 98 l 284 98 l 309 219 l 425 219 l 400 98 l 489 98 l 468 0 l 380 0 l 341 -189 l 225 -189 z"},"~":{"x_min":0,"x_max":527,"ha":527,"o":"m 42 217 q 65 260 98 281 q 131 303 176 303 q 205 303 231 293 q 257 284 280 274 q 298 266 315 260 q 332 255 348 255 q 372 255 387 266 q 403 277 415 297 l 485 246 q 462 203 428 181 q 395 160 351 160 q 325 160 302 168 q 278 175 257 185 q 236 193 217 201 q 197 208 179 208 q 154 208 139 197 q 125 186 112 166 z"},"D":{"x_min":0,"x_max":674,"ha":674,"o":"m 169 100 l 243 100 q 289 100 323 108 q 358 116 386 131 q 423 150 451 179 q 478 208 497 243 q 515 278 525 318 q 534 358 535 399 q 536 453 518 487 q 500 521 460 538 q 441 546 416 550 q 391 553 354 553 l 263 553 z m 359 653 q 410 653 447 647 q 485 641 515 629 q 551 614 578 592 q 604 570 621 542 q 638 514 646 480 q 655 446 655 408 q 655 384 651 352 q 646 320 636 285 q 626 250 609 214 q 591 177 565 144 q 538 110 501 81 q 464 52 415 33 q 376 18 329 9 q 281 0 216 0 l 29 0 l 165 653 z"},"^":{"x_min":0,"x_max":527,"ha":527,"o":"m 313 666 l 501 250 l 395 250 l 265 556 l 263 556 l 132 250 l 26 250 l 214 666 z"},"0":{"x_min":0,"x_max":500,"ha":500,"o":"m 291 390 q 269 390 250 381 q 231 372 216 355 q 201 339 189 317 q 178 296 171 271 q 163 247 159 221 q 156 195 156 170 q 156 129 172 106 q 188 83 225 83 q 248 83 266 92 q 285 101 300 117 q 315 134 326 155 q 337 177 345 201 q 352 226 356 252 q 359 278 359 303 q 359 343 343 367 q 327 390 291 390 z m 298 485 q 385 485 430 439 q 476 393 476 305 q 476 243 458 185 q 440 128 407 84 q 374 40 326 14 q 278 -12 217 -12 q 130 -12 85 33 q 40 79 40 167 q 40 230 57 287 q 75 345 108 389 q 141 433 189 459 q 237 485 298 485 z"},"F":{"x_min":0,"x_max":501,"ha":501,"o":"m 29 0 l 165 653 l 564 653 l 543 553 l 263 553 l 228 384 l 472 384 l 452 284 l 208 284 l 148 0 z"},"`":{"x_min":0,"x_max":391,"ha":391,"o":"m 298 719 l 321 549 l 235 549 l 190 719 z m 0 473 z"},"k":{"x_min":0,"x_max":485,"ha":485,"o":"m 145 0 l 29 0 l 176 707 l 291 707 l 219 360 q 215 341 211 322 q 206 302 202 285 l 205 285 l 383 473 l 524 473 l 306 247 l 306 245 q 313 235 317 219 q 322 203 326 185 q 331 167 337 149 q 343 130 353 116 q 362 101 377 92 q 392 83 414 83 q 426 83 443 86 l 424 -9 q 404 -12 387 -12 q 344 -12 317 3 q 289 17 271 40 q 253 62 244 90 q 234 118 226 144 q 219 170 212 191 q 205 213 193 224 l 191 224 z"},"u":{"x_min":0,"x_max":525,"ha":525,"o":"m 228 -12 q 181 -12 148 -2 q 114 9 93 28 q 71 47 61 73 q 51 100 51 132 q 51 142 53 155 q 55 168 59 189 l 117 473 l 232 473 l 173 185 q 170 173 169 163 q 168 153 168 145 q 168 116 185 99 q 201 83 237 83 q 262 83 281 90 q 299 97 312 110 q 324 124 332 143 q 340 162 345 186 l 405 473 l 520 473 l 454 154 q 447 122 433 92 q 418 62 392 39 q 366 16 326 2 q 286 -12 228 -12 z"},"]":{"x_min":0,"x_max":315,"ha":315,"o":"m 163 -146 l -52 -146 l -34 -62 l 81 -62 l 212 569 l 98 569 l 116 653 l 330 653 z"},"U":{"x_min":0,"x_max":659,"ha":659,"o":"m 299 89 q 350 89 387 110 q 425 131 450 178 q 459 195 466 217 q 473 239 480 271 l 559 653 l 678 653 l 594 247 q 586 210 578 185 q 570 159 560 137 q 543 104 520 76 q 497 49 464 29 q 431 10 387 -1 q 344 -12 288 -12 q 226 -12 183 4 q 141 20 114 47 q 87 75 75 111 q 63 147 63 187 q 63 210 67 233 q 70 255 75 278 l 152 653 l 271 653 l 191 265 q 188 248 186 232 q 184 216 184 202 q 184 179 189 158 q 195 138 209 122 q 222 107 244 98 q 266 89 299 89 z"},"o":{"x_min":0,"x_max":512,"ha":512,"o":"m 298 390 q 274 390 255 381 q 235 372 220 355 q 204 339 193 317 q 181 296 173 271 q 166 247 162 221 q 158 195 158 170 q 158 129 177 106 q 195 83 236 83 q 259 83 279 92 q 298 101 314 117 q 330 134 341 155 q 353 177 361 201 q 368 226 372 252 q 376 278 376 303 q 376 343 357 367 q 338 390 298 390 z m 308 485 q 350 485 384 474 q 417 462 442 440 q 466 418 479 384 q 492 350 492 305 q 492 243 475 185 q 458 128 425 84 q 391 40 341 14 q 292 -12 226 -12 q 185 -12 150 -1 q 116 10 92 32 q 68 55 55 88 q 42 122 42 167 q 42 230 59 287 q 76 345 109 389 q 143 433 192 459 q 242 485 308 485 z"},"N":{"x_min":0,"x_max":692,"ha":692,"o":"m 456 0 l 322 290 q 272 395 243 478 l 240 478 q 231 396 209 292 l 148 0 l 29 0 l 165 653 l 280 653 l 415 364 q 464 259 493 176 l 496 176 q 502 240 527 362 l 588 653 l 707 653 l 572 0 z"},"+":{"x_min":0,"x_max":527,"ha":527,"o":"m 56 306 l 215 306 l 215 474 l 312 474 l 312 306 l 472 306 l 472 213 l 312 213 l 312 45 l 215 45 l 215 213 l 56 213 z"},"G":{"x_min":0,"x_max":678,"ha":678,"o":"m 455 666 q 506 666 552 656 q 599 647 635 634 l 614 535 q 573 550 536 557 q 500 564 463 564 q 416 564 375 552 q 335 540 304 518 q 272 497 249 467 q 226 438 211 403 q 196 368 188 330 q 181 292 181 253 q 181 172 216 130 q 251 89 321 89 q 354 89 382 96 q 410 103 431 118 q 453 134 468 158 q 483 183 490 217 l 497 250 l 351 250 l 371 350 l 637 350 l 606 204 q 593 141 565 99 q 537 58 497 33 q 458 8 410 -2 q 362 -12 310 -12 q 256 -12 210 4 q 165 21 131 53 q 98 86 80 134 q 61 182 61 245 q 61 303 73 357 q 85 411 108 458 q 131 504 165 543 q 199 581 243 608 q 287 636 340 651 q 393 666 455 666 z"},"q":{"x_min":0,"x_max":514,"ha":514,"o":"m 292 5 q 297 31 304 52 l 302 52 q 278 20 247 4 q 215 -12 178 -12 q 146 -12 121 0 q 95 11 78 33 q 60 54 51 84 q 42 115 42 152 q 42 191 48 231 q 55 271 68 308 q 81 345 100 377 q 119 410 145 434 q 170 458 201 471 q 232 485 270 485 q 303 485 333 471 q 364 457 386 426 l 388 426 l 405 473 l 504 473 l 359 -227 l 244 -227 z m 364 354 q 360 360 353 366 q 345 373 336 378 q 327 383 315 387 q 304 390 291 390 q 268 390 249 379 q 229 368 215 350 q 200 332 189 308 q 178 284 171 259 q 165 233 161 209 q 158 184 158 163 q 158 122 171 102 q 184 83 208 83 q 232 83 256 97 q 279 112 298 139 q 328 180 342 247 z"},"d":{"x_min":0,"x_max":541,"ha":541,"o":"m 432 114 q 432 103 438 96 q 444 89 458 89 q 472 89 493 92 l 473 0 q 460 -3 444 -5 q 428 -7 415 -7 q 375 -7 354 12 q 333 31 328 65 l 326 65 q 292 24 254 6 q 215 -12 178 -12 q 146 -12 121 0 q 95 11 78 33 q 60 54 51 84 q 42 115 42 152 q 42 191 48 231 q 55 271 68 308 q 81 345 100 377 q 119 410 144 434 q 168 458 198 471 q 229 485 264 485 q 299 485 328 470 q 356 456 377 426 l 379 426 l 438 707 l 553 707 l 436 144 q 434 134 433 126 q 432 118 432 114 z m 364 352 q 359 358 352 365 q 345 372 336 377 q 327 383 315 386 q 304 390 291 390 q 268 390 249 379 q 230 368 215 350 q 201 332 190 308 q 179 284 172 259 q 165 233 161 209 q 158 184 158 163 q 158 122 171 102 q 184 83 208 83 q 235 83 262 102 q 288 121 309 154 q 330 190 342 246 z"},"1":{"x_min":0,"x_max":481,"ha":481,"o":"m 188 98 l 241 351 l 62 300 l 83 407 l 290 473 l 381 473 l 304 98 l 444 98 l 424 0 l 24 0 l 45 98 z"},"5":{"x_min":0,"x_max":488,"ha":488,"o":"m 196 217 q 202 217 207 218 q 213 218 218 218 q 259 218 295 207 q 332 196 358 174 q 385 152 401 118 q 417 85 417 40 q 417 -5 401 -49 q 386 -92 354 -126 q 322 -160 272 -181 q 223 -202 155 -202 q 103 -202 61 -191 q 19 -181 -15 -163 l 5 -66 q 19 -75 37 -82 q 54 -89 73 -93 q 92 -98 112 -100 q 131 -103 149 -103 q 189 -103 218 -91 q 247 -80 265 -62 q 283 -43 292 -19 q 300 5 300 30 q 300 79 267 102 q 233 125 167 125 q 138 125 110 122 q 83 120 56 116 l 157 473 l 488 473 l 466 368 l 238 368 z"}}}
